<svg width="512" height="512" viewBox="0 0 512 512" fill="none" xmlns="http://www.w3.org/2000/svg">
<rect width="512" height="512" fill="#643B9F"/>
<path d="M114.4 112C109.49 112 105.2 114.66 102.891 118.62C102.506 119.13 102.153 119.675 101.837 120.252C84.7271 151.464 75.6174 177.375 77.1708 201.027C78.7789 225.512 91.5594 244.82 111.445 263.143C111.769 263.442 112.105 263.722 112.449 263.982C114.888 266.72 118.439 268.444 122.392 268.444H386.068C404.196 293.265 409.876 308.467 409.327 321.941C408.772 335.556 401.88 350.064 386.883 373.332H112.117C112.112 373.332 112.107 373.332 112.101 373.332L109.961 373.332C109.955 373.332 109.949 373.332 109.943 373.332L109.438 373.332L109.33 373.347C108.531 373.384 107.752 373.492 106.997 373.664L106.052 373.792C105.442 373.875 104.857 374.083 104.332 374.404L101.003 376.443L86.3129 387.298C84.1964 388.862 83.8948 391.915 85.6644 393.863L89.9148 398.544C90.7562 399.47 91.9489 399.998 93.1997 399.998H109.882C109.889 399.998 109.897 399.998 109.905 399.998C109.924 399.999 109.942 399.999 109.961 399.999H393.88C394.011 400 394.143 400 394.274 399.999H395.865V399.975C396.285 399.93 396.69 399.823 397.072 399.66C400.289 398.92 403.238 396.99 405.201 394.016C422.455 367.879 434.997 346.214 435.942 323.028C436.913 299.202 425.68 276.797 404.739 248.882C404.093 248.019 403.362 247.258 402.566 246.6C400.123 243.654 396.437 241.777 392.313 241.777H127.619C111.686 226.637 104.697 213.695 103.75 199.278C102.778 184.474 107.969 165.713 122.188 138.667L382.784 138.667C383.027 138.758 383.289 138.807 383.564 138.807L386.227 138.807L389.613 138.348C390.223 138.265 390.808 138.056 391.333 137.735L394.662 135.696L409.352 124.842C411.469 123.278 411.77 120.225 410.001 118.276L405.737 113.581C404.904 112.663 403.724 112.136 402.485 112.127L385.815 112.006C385.764 112.006 385.713 112.006 385.662 112.008C385.512 112.003 385.361 112 385.21 112L114.4 112Z" fill="white"/>
<path d="M133.047 168C133.047 163.091 137.022 159.111 141.925 159.111H362.125C367.028 159.111 371.004 163.091 371.004 168C371.004 172.909 367.028 176.889 362.125 176.889H141.925C137.022 176.889 133.047 172.909 133.047 168Z" fill="white"/>
<path d="M196.087 202.666C191.184 202.666 187.208 206.646 187.208 211.555C187.208 216.464 191.184 220.444 196.087 220.444L362.125 220.444C367.028 220.444 371.004 216.464 371.004 211.555C371.004 206.646 367.028 202.666 362.125 202.666L196.087 202.666Z" fill="white"/>
<path d="M133.047 211.555C133.047 206.646 137.022 202.666 141.925 202.666H156.132C161.036 202.666 165.011 206.646 165.011 211.555C165.011 216.464 161.036 220.444 156.132 220.444H141.925C137.022 220.444 133.047 216.464 133.047 211.555Z" fill="white"/>
<path d="M348.806 290.666C353.71 290.666 357.685 294.645 357.685 299.555C357.685 304.464 353.71 308.443 348.806 308.443H128.607C123.703 308.443 119.728 304.464 119.728 299.555C119.728 294.645 123.703 290.666 128.607 290.666H348.806Z" fill="white"/>
<path d="M303.523 343.11C303.523 338.201 299.548 334.221 294.644 334.221L128.607 334.221C123.703 334.221 119.728 338.201 119.728 343.11C119.728 348.019 123.703 351.999 128.607 351.999L294.644 351.999C299.548 351.999 303.523 348.019 303.523 343.11Z" fill="white"/>
<path d="M362.125 334.221C367.028 334.221 371.004 338.201 371.004 343.11C371.004 348.019 367.028 351.999 362.125 351.999H334.6C329.696 351.999 325.721 348.019 325.721 343.11C325.721 338.201 329.696 334.221 334.6 334.221H362.125Z" fill="white"/>
</svg>
